<?xml version="1.0" standalone="no"?><svg xmlns="http://www.w3.org/2000/svg" viewBox="0 0 1440 320"><path fill="#273036" fill-opacity="1" d="M0,320L21.8,282.7C43.6,245,87,171,131,117.3C174.5,64,218,32,262,21.3C305.5,11,349,21,393,26.7C436.4,32,480,32,524,37.3C567.3,43,611,53,655,69.3C698.2,85,742,107,785,144C829.1,181,873,235,916,245.3C960,256,1004,224,1047,213.3C1090.9,203,1135,213,1178,202.7C1221.8,192,1265,160,1309,128C1352.7,96,1396,64,1418,48L1440,32L1440,0L1418.2,0C1396.4,0,1353,0,1309,0C1265.5,0,1222,0,1178,0C1134.5,0,1091,0,1047,0C1003.6,0,960,0,916,0C872.7,0,829,0,785,0C741.8,0,698,0,655,0C610.9,0,567,0,524,0C480,0,436,0,393,0C349.1,0,305,0,262,0C218.2,0,175,0,131,0C87.3,0,44,0,22,0L0,0Z"></path></svg>